<svg xmlns="http://www.w3.org/2000/svg" width="150" height="52.1" viewBox="0 0 251.31 87.34"><defs><style>.cls-1{fill:#bf0c13;}.cls-2{fill:#fefefe;}.cls-3{fill:#fefdfc;}</style></defs><g id="Layer_2" data-name="Layer 2"><g id="Layer_1-2" data-name="Layer 1"><path class="cls-1" d="M12,1,14.88,1A2.68,2.68,0,0,0,16.45.61,6.13,6.13,0,0,1,20.22.05,16,16,0,0,1,26,1.49c.61.61,1.49.9,1.95,1.69,1.19,1.36,1,2.92.69,4.51a65.7,65.7,0,0,0-1.72,6.66,5,5,0,0,1-.65,1.87c-.43.61-.05,1,.32,1.31s.7-.12.95-.36c4.15-4.08,11.09-4.64,16.31-1.23.83.54,1.29.62,2-.2a5.12,5.12,0,0,1,3.69-1.57,12.55,12.55,0,0,1,5,.34,2.3,2.3,0,0,0,1.3,0c3.87-.93,7.43-.43,10.43,2.4.42.4.67.28,1,0a11.11,11.11,0,0,1,6.54-2.73,1,1,0,0,0,1.08-1c.23-1.35.52-2.69.8-4,.48-2.33,1.62-3.27,4-3.26q3,0,6,0a3.78,3.78,0,0,1,3.78,3.35c.26,2.14.06,4.29.18,6.57a13.1,13.1,0,0,1,4.75-1.9,14.51,14.51,0,0,1,9.83,1.88c.49.29.77.4,1.09-.23a2.19,2.19,0,0,1,2.19-1.24c2.77.07,5.54.09,8.31.39a11.83,11.83,0,0,0,3.28-.43,7,7,0,0,1,4.51.74,1.53,1.53,0,0,0,1.35.12,12.73,12.73,0,0,1,13,2.52c.53.45.78.41,1.22-.09a7.62,7.62,0,0,1,5-2.58c2.47-.23,4.89-1.18,7.44-.42,2,.59,3.66,1.43,4.31,3.57a6.78,6.78,0,0,1-.09,2.42c-.65,2.18-1.81,4.35,0,6.52a.21.21,0,0,1,0,.1,9.55,9.55,0,0,1-5,12.33c-.72.33-1.38.65-1,1.63a38.09,38.09,0,0,0,2.75,7.15c.71-2.41,1.82-4.48,2.21-6.79.12-.46.47-.48.86-.52a106.24,106.24,0,0,1,19.37-.4c2.68.22,5.38.53,7.74,2,1.5,1.36,3.58,2.11,4.45,4.3.49-1.61,1.35-2.89,1.9-4.31.25-.41.52-.8.75-1.23a.94.94,0,0,1,.94-.59q11-.06,22.08-.17c.47,0,.79.11.92.58q1.54,6.06,3.1,12.12a19.91,19.91,0,0,1,2-6c2.54-4.43,6.53-6.59,11.48-7.18a22.52,22.52,0,0,1,2.32-.11,7.54,7.54,0,0,0,3.84-.73c1.49-.83,3.23-.54,4.89-.28a17,17,0,0,1,5.41,1.55,5.13,5.13,0,0,1,2.85,6.55c-.81,2.81-1.49,5.65-2.13,8.5a5.27,5.27,0,0,1-1,2.41c-.4.47-.24.69.13,1.07,4.71,4.79,5.76,10.5,3.61,16.69s-6.86,9.84-13.41,10.83a27.09,27.09,0,0,1-11.22-.7,4.06,4.06,0,0,0-2.16,0,29.29,29.29,0,0,1-16.62,0c-.66-.21-1.06-.46-1.16-1.23-.12-1-.43-2-.64-3a.74.74,0,0,0-.89-.71c-1.14.05-2.3,0-3.44,0-.58,0-.75.21-.83.73-.17,1.06-.4,2.11-.6,3.16-.09.44-.19.8-.74,1-5.38,1.58-10.78,2.17-16.27.52-1.9-.57-1.87-.56-1.67-2.52.22-2.17-.14-4.37.31-6.54,0,0,.12-.13.11-.15s-.17-.08-.27,0a21.87,21.87,0,0,1-6.29,2.37c-.56.1-.56.45-.6.88-.14,1.55-.35,3.09-.48,4.64-.05.54-.21.74-.79.74q-15-.08-30-.08c-.53,0-.71-.21-.81-.67a13.62,13.62,0,0,0-.66-2.66c-.25-.45.13-1.28-.84-1.26-1.21,0-2.41,0-3.62,0-.38,0-.63.08-.63.53s-.31.91-.18,1.4a2.47,2.47,0,0,0-.49,1.67c-.08.82-.42,1-1.2,1-6,0-11.92,0-17.88,0l-42,0a24.06,24.06,0,0,0-2.55.05c-1,.1-1.66-.1-1.34-1.49-7.1,3.74-14.2,3.54-21.27.51A23.73,23.73,0,0,1,35.09,69c-5.23,4.08-11,3.74-16.9,2.43A55.4,55.4,0,0,0,5.6,70.48a1.34,1.34,0,0,0-.72.21,2.77,2.77,0,0,1-3.8-.33,3.36,3.36,0,0,1-.67-4.07,6.07,6.07,0,0,1,3-2.52c.46-.22,1-.4,1.5-.62C1.71,60.66.59,57.29.72,53.44.87,49,3.22,44.87,8.31,44c.55-.09.72-.36.8-.86.13-.87.65-1.88.37-2.57S8,40.06,7.17,39.79a15.32,15.32,0,0,1-4.72-2.38A4,4,0,0,1,.81,33.22a34.94,34.94,0,0,1,2.15-8c.76-1.66.34-2.51-.52-3.84C0,17.62-.07,13.51,1.24,9.32l1-2.24A12.55,12.55,0,0,1,6.31,3,19.31,19.31,0,0,1,9.75,1.51ZM104.7,63.47h0c0-6,0-11.93,0-17.9,0-.85-.24-1-1-1-3,0-5.93,0-8.89,0-.8,0-1,.23-1,1,0,3.37,0,6.75,0,10.12,0,.7-.14.95-.9.93-2.14-.05-4.29-.06-6.44,0-.81,0-1-.24-1-1,0-3.48,0-7,0-10.45,0-.68-.13-.94-.89-.94-3.18,0-6.37,0-9.55-.07-.7,0-.94.25-1.11.87-.81,2.93-1.66,5.84-2.49,8.76-.4,1.4-.39,1.4,1,1.62a.83.83,0,0,0,.22,0c1.09-.09,1.28.46,1.27,1.47C74,65,74,73.12,73.92,81.23c0,.77.19,1,1,1,3.22-.08,6.44-.1,9.66-.09.74,0,1-.13,1-.95,0-3.78,0-7.56,0-11.34,0-.78.12-1.09,1-1.06,2.11.08,4.22.07,6.33,0,.8,0,1,.22,1,1,0,3.78,0,7.56,0,11.34,0,.73.13,1,1,1,3,0,6.07,0,9.1.08.67,0,.88-.15.87-.85C104.69,75.39,104.7,69.43,104.7,63.47Zm22.8-9.32a3.22,3.22,0,0,1-.07.42C125.31,63.38,123.2,72.2,121,81c-.25,1,0,1.15.93,1.13,3.08,0,6.15,0,9.22,0,.8,0,1.21-.14,1.3-1s.4-1.88.52-2.84c.08-.66.35-.84,1-.83,2,0,4.08,0,6.11,0,1.18,0,2.64-.38,3.47.17s.63,2.17.94,3.3a1.36,1.36,0,0,1,.08.32c0,.73.38.9,1.07.89,3.41,0,6.81,0,10.22,0,.94,0,.89-.33.71-1q-4.74-18-9.42-36.08c-.2-.75-.52-.9-1.21-.89-3.4.06-6.81.06-10.21.09-2,0-4.07,0-6.11.08-.36,0-.83-.15-1,.42-1,3.11-2,6.23-3.09,9.41Zm63.95,0-.28,1.22q-3.09,12.84-6.2,25.67c-.19.78-.2,1.1.78,1.08,3.18-.07,6.37,0,9.55,0,.69,0,1-.2,1.09-.87.15-1.06.41-2.11.57-3.17.08-.49.27-.66.79-.66,3.07,0,6.15,0,9.22,0,.53,0,.78.15.88.7.18,1.06.52,2.09.67,3.15.1.74.46.85,1.11.85,3.37,0,6.73,0,10.1,0,.77,0,1-.09.8-1q-4.74-18-9.41-36.07c-.2-.78-.53-1-1.28-.94-3.37.06-6.74.06-10.1.09-2,0-4.07.07-6.11,0a1.09,1.09,0,0,0-1.23.92c-.86,2.71-1.78,5.41-2.65,8.11-.08.25-.34.51-.09.85ZM157.3,69.06h.4q0,6.21,0,12.43c0,.54.1.8.72.79,3.52,0,7,0,10.55,0,.53,0,.7-.16.67-.71-.1-1.77-.14-3.55-.21-5.32-.07-2-.08-2,1.9-2.06l1-.06a13.11,13.11,0,0,0,12.25-9.88,26.36,26.36,0,0,0,.68-10.12,12.54,12.54,0,0,0-4-8.08,4.33,4.33,0,0,0-1.92-1c-6.93-1.71-13.93-1.42-21-.76-.55.05-.73.29-.85.79-.72,3-1.43,6-2.23,8.94-.22.82-.06,1.25.76,1.38,1,.16,1.27.74,1.26,1.7C157.28,61.06,157.3,65.06,157.3,69.06ZM65.7,57c1.7-4,3.35-7.82,5-11.68.29-.64-.16-.66-.51-.82-2.3-1-4.61-2-6.87-3.11-.73-.35-1.28-.41-1.85.21a2.21,2.21,0,0,1-2.19.61,16.12,16.12,0,0,0-7.14.48c-7.61,2.38-12,7.79-13.73,15.33-1.62,7-.19,13.36,5,18.51,4.07,4,9.2,5.65,14.85,5.69a19.22,19.22,0,0,0,11.85-3.7.91.91,0,0,0,.36-1.35c-1.47-3.15-2.91-6.31-4.29-9.5-.36-.85-.62-.73-1.19-.22a11.44,11.44,0,0,1-4.47,2.38c-4.34,1.24-8-.52-9.38-4.55A9.87,9.87,0,0,1,51.14,59a7.19,7.19,0,0,1,9.36-5A13.54,13.54,0,0,1,65.7,57ZM234.18,83.34a13.17,13.17,0,0,0,6.63-1.62,12.51,12.51,0,0,0,6.86-12.16c-.2-5.2-2.93-8.69-7.82-10.5-1.73-.65-3.45-1.32-5.16-2-.63-.26-1.46-.57-1.36-1.4s.9-1.2,1.67-1.42a5,5,0,0,1,.66-.09A10.11,10.11,0,0,1,242,55.62c1.48.86,1.78.73,2.13-.93.6-2.86,1.31-5.69,2.11-8.5.37-1.34.2-1.86-1-2.45a15.18,15.18,0,0,0-6.9-1.38,1.13,1.13,0,0,0-.89.4,2.55,2.55,0,0,1-2.21.75c-.89,0-1.78,0-2.67,0-3.55.1-6.85.93-9.31,3.7A11.93,11.93,0,0,0,227,65.69c1.76.85,3.62,1.47,5.44,2.22A5.51,5.51,0,0,1,234.4,69a1.72,1.72,0,0,1,.58,1.9,1.89,1.89,0,0,1-1.69,1.25,3.79,3.79,0,0,1-1.2-.14,58.12,58.12,0,0,1-7-2.38c-1.52-.57-1.59-.56-2,1.06-.65,2.36-1.28,4.71-1.87,7.08-.51,2.06-.46,2.18,1.43,3.23C225.85,82.78,229.42,83.28,234.18,83.34ZM14.28,37.29a16.3,16.3,0,0,0,4.5-.52,10.65,10.65,0,0,0,7.55-9.68c.17-4.86-1.94-8-6.65-9.86-1.34-.53-2.69-1-4-1.59-.52-.22-1.21-.48-1.11-1.2s.7-.93,1.29-1.08a5.2,5.2,0,0,1,.88-.14,8.48,8.48,0,0,1,5.06,1.34c1.08.63,1.3.53,1.6-.63C24,11.45,24.61,9,25.25,6.51A1.26,1.26,0,0,0,24.74,5a10.86,10.86,0,0,0-6.3-1.31.56.56,0,0,0-.39.17c-.65.8-1.56.73-2.44.75s-1.63,0-2.44,0c-3.63.24-6.67,1.57-8.25,5C3,13.74,3.3,20.3,9.76,23c1.64.68,3.31,1.29,4.92,2,.81.36,1.48.95,1.22,2-.23.86-1.13,1.22-2.3,1a36.83,36.83,0,0,1-6-2c-.83-.33-1.31-.23-1.54.72C5.56,28.79,5,31,4.41,33.08a1.58,1.58,0,0,0,.92,2.06A18,18,0,0,0,14.28,37.29Zm105.3,25.87h.08c0-6,0-11.93,0-17.9,0-.65-.08-1-.89-1-3.06-.09-6.13-.25-9.19-.43-.75,0-1.1.11-1.26.94-.6,3.12-1.26,6.23-2,9.33-.26,1.06,0,1.43,1,1.33.7-.06,1,.18.95.94,0,2.33.07,4.66.1,7,.09,5.89.19,11.78.24,17.66,0,.91.32,1.11,1.17,1.09,2.89,0,5.77,0,8.66,0,.85,0,1.12-.18,1.12-1.08C119.56,75.08,119.58,69.12,119.58,63.16ZM78.19,35.74c.49.42.28,1.16,1.08,1.15,1.81,0,3.63,0,5.44,0a.71.71,0,0,0,.83-.54c.64-2,1.31-4.08,2-6.12.1-.31.14-.63-.34-.56-1.11.16-1.18-.51-1.18-1.34q0-5,0-10c0-2.71-.06-5.41-.07-8.11,0-.65-.2-.89-.9-.87-1.7.06-3.4,0-5.1,0-.6,0-.84.18-.94.76-.3,1.64-.67,3.26-1,4.89-.45,2.32-.44,2.32-2.79,2.45-4.7.26-7.33,2.44-8.25,6.88a13.1,13.1,0,0,0,.77,7.72,7.15,7.15,0,0,0,6.42,4.71c.7.06,1.4.06,2.1.11C77.16,37,78,37,78.19,35.74ZM19,56.15a6.6,6.6,0,0,0,5.09,4.68,13.6,13.6,0,0,0,4,.38c2.56-.1,2.56-.11,3.11-2.65.08-.4.15-.81.26-1.19.2-.66,0-.86-.69-.85a17.82,17.82,0,0,1-3.65-.14c-.44-.09-.92-.12-1.19-.72h4c2.4,0,2.4,0,2.36-2.43a6.11,6.11,0,0,0-5.19-5.92c-3.27-.68-6,.55-7.23,3.31a8.68,8.68,0,0,0-.76,4.55c0,.27.33.77-.39.76-.55,0-.82-.15-.81-.75s-.06-1.18-.06-1.77V43c0-1.41,0-1.41-1.45-1.41-.82,0-1.64,0-2.45,0-.65,0-1,.1-1.1.86-.18,1.28-.6,2.52-.75,3.81-.12.92-.52,1.08-1.36,1.08-3.45,0-5.43,1.44-6.22,4.41A9.44,9.44,0,0,0,4.26,55c.43,4.14,2.5,6,6.64,6a3.23,3.23,0,0,1,.44,0c.55.08.9-.13,1-1.06.24,1,.73,1.09,1.33,1.07a19.67,19.67,0,0,1,2.66,0,1.17,1.17,0,0,0,1.46-1C18.13,58.7,18.6,57.43,19,56.15Zm35.92-37a2.13,2.13,0,0,0-1.77-1.35,12.32,12.32,0,0,0-3.43-.12,2.49,2.49,0,0,0-2.2,1.45,18,18,0,0,0-1.39,4.77c-.12.53.25.67.57.8.68.25.81.73.79,1.39-.08,3.22-.08,6.44-.21,9.66,0,1,.31,1.21,1.24,1.18,2-.07,3.91,0,5.87,0,.58,0,.67-.24.67-.73,0-1.22,0-2.45,0-3.67,0-2.07,0-4.15,0-6.22a1.13,1.13,0,0,1,1.14-1.25,1.2,1.2,0,0,1,1.33,1.07,4.9,4.9,0,0,1,.07.77q.18,4.59.35,9.2c0,.49,0,.84.7.84,2,0,3.92,0,5.88,0,.33,0,.66.05.75-.43.41-2.11.87-4.2,1.28-6.31.08-.37.05-.83-.5-.76-.83.09-.77-.44-.78-1a43,43,0,0,0-.22-6.32,5.05,5.05,0,0,0-4-4.27C59,17.41,56.76,17.14,54.94,19.16ZM36.67,29.33c2.78-.21,5.33,0,7.87,0,.63,0,1.07-.12,1.19-.83a9.56,9.56,0,0,0-.52-5.77c-1.82-4-5.19-5.37-9.28-5.42-3.64,0-6.37,1.91-7.83,5.47-2.7,6.57.27,12.66,6.84,14a26.49,26.49,0,0,0,8,.14c.61-.06.79-.35.9-.89.29-1.52.61-3,1-4.55.18-.74-.1-.94-.77-.93-1.26,0-2.52.05-3.78,0A4.59,4.59,0,0,1,36.67,29.33Zm60.57,0c.65,0,1.15-.08,1.65-.08l6.21.05c.52,0,1,0,1.08-.68A9.29,9.29,0,0,0,105,21.46c-2.26-3.35-5.64-4.43-9.47-4.13s-6,2.56-7.2,6c-2.14,6.09.32,11.49,6,13.15a23.2,23.2,0,0,0,9.13.37c.46,0,.61-.26.69-.69.31-1.52.61-3.05,1-4.55.22-.86,0-1.12-.89-1.12a30,30,0,0,1-5.1-.13A2.52,2.52,0,0,1,97.24,29.32Zm41.45-1.89a9.5,9.5,0,1,0-9.52,9.48A9.43,9.43,0,0,0,138.69,27.43Zm7.5,9.48a9.3,9.3,0,0,0,3-.53,6,6,0,0,0,3.68-5.69,5.15,5.15,0,0,0-3.65-5.13c-.69-.28-1.39-.52-2.07-.81-.38-.17-1-.26-.89-.81s.68-.62,1.16-.67a4.6,4.6,0,0,1,2.84.76c.52.31.83.21,1-.37.35-1.4.68-2.8,1-4.2a.72.72,0,0,0-.28-.88,4.28,4.28,0,0,0-3.59-.66,8.46,8.46,0,0,1-2.78.42,5.09,5.09,0,0,0-5.28,4c-.63,3,.43,5.2,3.07,6.4.87.4,1.78.71,2.66,1.1.51.23,1.09.53.83,1.22s-.83.65-1.41.45c-1-.32-2-.6-2.93-1-.72-.3-1.08-.21-1.25.59-.24,1.09-.51,2.17-.83,3.23-.22.71,0,1.07.64,1.42A11,11,0,0,0,146.19,36.91Zm-30.56-18c-.3-.36-.57-.76-1.19-.77-1.92,0-3.84-.11-5.76-.2-.46,0-.64.13-.76.57-.44,1.68-.93,3.35-1.4,5-.14.51-.14,1,.41,1.24s.73.81.71,1.45c-.1,3.29-.15,6.58-.28,9.87,0,.73.11,1,.88,1,1.77-.07,3.55-.09,5.32-.05.8,0,1.07-.18,1.09-1,.06-3,.21-6,.35-9,.08-1.64.11-1.72,1.81-1.67a1.85,1.85,0,0,0,2.08-1.66c.49-1.89.71-3.83,1-5.89C118.44,18.12,116.89,17.82,115.63,18.86ZM47.72,40.53c-3.69-.36-7.24.39-10.82,0-3.79-.35-7.25-1.43-10-4.24-.35-.35-.52-.49-.93-.05a12.65,12.65,0,0,1-4.2,3,.74.74,0,0,0-.52.83c0,1.36,0,2.73,0,4.2a11.39,11.39,0,0,1,9.94.88c3.13,1.9,4.56,4.83,4.62,8.75C38.37,48,42,43.39,47.72,40.53ZM5.5,67a6.62,6.62,0,0,0,.77,0A57.65,57.65,0,0,1,21,68.34a15.78,15.78,0,0,0,7.36,0,10.51,10.51,0,0,0,4.87-2.59,28,28,0,0,1-10-.16,57.6,57.6,0,0,0-6.81-.86A22.71,22.71,0,0,0,5.5,67Zm52.68-1.58A6.65,6.65,0,0,0,63,62.63.83.83,0,0,0,63,61.51c-1.37-1.6-3-2.77-5.21-2.68a3.28,3.28,0,0,0,.36,6.54Z"/><path class="cls-2" d="M104.7,63.47c0,6,0,11.92,0,17.89,0,.7-.2.87-.87.85-3-.06-6.07-.1-9.1-.08-.83,0-1-.29-1-1,0-3.78,0-7.56,0-11.34,0-.76-.16-1-1-1-2.11.06-4.22.07-6.33,0-.88,0-1,.28-1,1.06,0,3.78,0,7.56,0,11.34,0,.82-.27.95-1,.95-3.22,0-6.44,0-9.66.09-.78,0-1-.22-1-1C74,73.12,74,65,74,56.9c0-1-.18-1.56-1.27-1.47a.83.83,0,0,1-.22,0c-1.4-.22-1.41-.22-1-1.62C72.34,50.86,73.19,48,74,45c.17-.62.41-.89,1.11-.87,3.18.07,6.37.09,9.55.07.76,0,.9.26.89.94,0,3.49,0,7,0,10.45,0,.75.14,1,1,1,2.15-.06,4.3-.05,6.44,0,.76,0,.91-.23.9-.93,0-3.37,0-6.75,0-10.12,0-.76.16-1,1-1,3,0,5.93,0,8.89,0,.8,0,1.05.16,1,1,0,6,0,11.93,0,17.9Z"/><path class="cls-3" d="M127.5,54.15h-2c1-3.18,2.07-6.3,3.09-9.41.18-.57.65-.42,1-.42,2,0,4.07-.06,6.11-.08,3.4,0,6.81,0,10.21-.09.69,0,1,.14,1.21.89q4.67,18.06,9.42,36.08c.18.69.23,1-.71,1-3.41-.06-6.81,0-10.22,0-.69,0-1.06-.16-1.07-.89a1.36,1.36,0,0,0-.08-.32c-.31-1.13-.09-2.74-.94-3.3s-2.29-.17-3.47-.17c-2,0-4.07,0-6.11,0-.64,0-.91.17-1,.83-.12,1-.44,1.89-.52,2.84s-.5,1-1.3,1c-3.07,0-6.14,0-9.22,0-.92,0-1.18-.1-.93-1.13,2.17-8.8,4.28-17.62,6.4-26.43A3.22,3.22,0,0,0,127.5,54.15Zm14.14,12.44c-.95-3.39-1.88-6.66-2.87-10.18-1,3.37-1.84,6.49-2.74,9.6-.18.6.16.58.56.58C138.22,66.58,139.84,66.59,141.64,66.59Z"/><path class="cls-3" d="M191.45,54.17h-1.79c-.25-.34,0-.6.09-.85.87-2.7,1.79-5.4,2.65-8.11a1.09,1.09,0,0,1,1.23-.92c2,0,4.07,0,6.11,0,3.36,0,6.73,0,10.1-.09.75,0,1.08.16,1.28.94q4.66,18,9.41,36.07c.23.88,0,1-.8,1-3.37,0-6.73,0-10.1,0-.65,0-1-.11-1.11-.85-.15-1.06-.49-2.09-.67-3.15-.1-.55-.35-.7-.88-.7-3.07,0-6.15,0-9.22,0-.52,0-.71.17-.79.66-.16,1.06-.42,2.11-.57,3.17-.1.67-.4.88-1.09.87-3.18,0-6.37-.06-9.55,0-1,0-1-.3-.78-1.08q3.12-12.82,6.2-25.67Zm8.37,12.42c1.81,0,3.43,0,5.06,0,.56,0,.68-.13.52-.69-.89-3.06-1.75-6.14-2.7-9.51C201.7,60,200.78,63.21,199.82,66.59Z"/><path class="cls-3" d="M157.3,69.06c0-4,0-8,0-12,0-1-.28-1.54-1.26-1.7-.82-.13-1-.56-.76-1.38.8-3,1.51-6,2.23-8.94.12-.5.3-.74.85-.79,7-.66,14-.95,21,.76a4.33,4.33,0,0,1,1.92,1,12.54,12.54,0,0,1,4,8.08,26.36,26.36,0,0,1-.68,10.12,13.11,13.11,0,0,1-12.25,9.88l-1,.06c-2,.1-2,.1-1.9,2.06.07,1.77.11,3.55.21,5.32,0,.55-.14.71-.67.71-3.52,0-7,0-10.55,0-.62,0-.72-.25-.72-.79q0-6.21,0-12.43Zm12.34-9.89c0,1,0,1.92,0,2.89,0,.31-.09.62.47.66a3.64,3.64,0,0,0,4.13-4.24,3.81,3.81,0,0,0-4.2-3c-.43.08-.4.36-.4.65C169.63,57.17,169.64,58.17,169.64,59.17Z"/><path class="cls-3" d="M65.7,57a13.54,13.54,0,0,0-5.2-3,7.19,7.19,0,0,0-9.36,5,9.87,9.87,0,0,0,.06,6.33c1.38,4,5,5.79,9.38,4.55a11.44,11.44,0,0,0,4.47-2.38c.57-.51.83-.63,1.19.22,1.38,3.19,2.82,6.35,4.29,9.5a.91.91,0,0,1-.36,1.35,19.22,19.22,0,0,1-11.85,3.7c-5.65,0-10.78-1.68-14.85-5.69-5.21-5.15-6.64-11.54-5-18.51,1.75-7.54,6.12-12.95,13.73-15.33a16.12,16.12,0,0,1,7.14-.48,2.21,2.21,0,0,0,2.19-.61c.57-.62,1.12-.56,1.85-.21,2.26,1.09,4.57,2.08,6.87,3.11.35.16.8.18.51.82C69.05,49.21,67.4,53.08,65.7,57Z"/><path class="cls-3" d="M234.18,83.34c-4.76-.06-8.33-.56-11.59-2.36-1.89-1-1.94-1.17-1.43-3.23.59-2.37,1.22-4.72,1.87-7.08.44-1.62.51-1.63,2-1.06a58.12,58.12,0,0,0,7,2.38,3.79,3.79,0,0,0,1.2.14A1.89,1.89,0,0,0,235,70.88a1.72,1.72,0,0,0-.58-1.9,5.51,5.51,0,0,0-1.92-1.07c-1.82-.75-3.68-1.37-5.44-2.22a11.93,11.93,0,0,1-3.75-18.49c2.46-2.77,5.76-3.6,9.31-3.7.89,0,1.78,0,2.67,0a2.55,2.55,0,0,0,2.21-.75,1.13,1.13,0,0,1,.89-.4,15.18,15.18,0,0,1,6.9,1.38c1.19.59,1.36,1.11,1,2.45-.8,2.81-1.51,5.64-2.11,8.5-.35,1.66-.65,1.79-2.13.93a10.11,10.11,0,0,0-6.36-1.51,5,5,0,0,0-.66.09c-.77.22-1.57.57-1.67,1.42s.73,1.14,1.36,1.4c1.71.72,3.43,1.39,5.16,2,4.89,1.81,7.62,5.3,7.82,10.5a12.51,12.51,0,0,1-6.86,12.16A13.17,13.17,0,0,1,234.18,83.34Z"/><path class="cls-3" d="M14.28,37.29a18,18,0,0,1-8.95-2.15,1.58,1.58,0,0,1-.92-2.06C5,31,5.56,28.79,6.09,26.64c.23-.95.71-1.05,1.54-.72a36.83,36.83,0,0,0,6,2c1.17.25,2.07-.11,2.3-1,.26-1-.41-1.62-1.22-2-1.61-.72-3.28-1.33-4.92-2C3.3,20.3,3,13.74,4.92,9.62c1.58-3.48,4.62-4.81,8.25-5,.81-.05,1.63,0,2.44,0s1.79.05,2.44-.75a.56.56,0,0,1,.39-.17A10.86,10.86,0,0,1,24.74,5a1.26,1.26,0,0,1,.51,1.56C24.61,9,24,11.45,23.38,13.93c-.3,1.16-.52,1.26-1.6.63a8.48,8.48,0,0,0-5.06-1.34,5.2,5.2,0,0,0-.88.14c-.59.15-1.19.45-1.29,1.08s.59,1,1.11,1.2c1.33.57,2.68,1.06,4,1.59,4.71,1.86,6.82,5,6.65,9.86a10.65,10.65,0,0,1-7.55,9.68A16.3,16.3,0,0,1,14.28,37.29Z"/><path class="cls-3" d="M119.58,63.16c0,6,0,11.92,0,17.89,0,.9-.27,1.1-1.12,1.08-2.89,0-5.77,0-8.66,0-.85,0-1.16-.18-1.17-1.09,0-5.88-.15-11.77-.24-17.66,0-2.33-.11-4.66-.1-7,0-.76-.25-1-.95-.94-1,.1-1.3-.27-1-1.33.74-3.1,1.4-6.21,2-9.33.16-.83.51-1,1.26-.94,3.06.18,6.13.34,9.19.43.81,0,.89.33.89,1,0,6,0,11.93,0,17.9Z"/><path class="cls-3" d="M78.19,35.74c-.15,1.27-1,1.25-2,1.17-.7,0-1.4,0-2.1-.11a7.15,7.15,0,0,1-6.42-4.71A13.1,13.1,0,0,1,67,24.37c.92-4.44,3.55-6.62,8.25-6.88,2.35-.13,2.34-.13,2.79-2.45.31-1.63.68-3.25,1-4.89.1-.58.34-.78.94-.76,1.7,0,3.4,0,5.1,0,.7,0,.9.22.9.87,0,2.7.06,5.4.07,8.11q0,5,0,10c0,.83.07,1.5,1.18,1.34.48-.07.44.25.34.56-.65,2-1.32,4.08-2,6.12a.71.71,0,0,1-.83.54c-1.81,0-3.63,0-5.44,0C78.47,36.9,78.68,36.16,78.19,35.74ZM74.4,26.85a2.2,2.2,0,0,0,2.11,2.26,2.21,2.21,0,1,0,.1-4.42A2.2,2.2,0,0,0,74.4,26.85Z"/><path class="cls-3" d="M19,56.15c-.42,1.28-.89,2.55-1.22,3.85a1.17,1.17,0,0,1-1.46,1,19.67,19.67,0,0,0-2.66,0c-.6,0-1.09-.06-1.33-1.07-.11.93-.46,1.14-1,1.06a3.23,3.23,0,0,0-.44,0c-4.14,0-6.21-1.87-6.64-6a9.44,9.44,0,0,1,.24-3.31c.79-3,2.77-4.41,6.22-4.41.84,0,1.24-.16,1.36-1.08.15-1.29.57-2.53.75-3.81.11-.76.45-.89,1.1-.86.81.05,1.63,0,2.45,0,1.45,0,1.45,0,1.45,1.41V53.41c0,.59.08,1.18.06,1.77s.26.75.81.75c.72,0,.42-.49.39-.76a8.68,8.68,0,0,1,.76-4.55c1.26-2.76,4-4,7.23-3.31a6.11,6.11,0,0,1,5.19,5.92c0,2.43,0,2.43-2.36,2.43h-4c.27.6.75.63,1.19.72a17.82,17.82,0,0,0,3.65.14c.65,0,.89.19.69.85-.11.38-.18.79-.26,1.19-.55,2.54-.55,2.55-3.11,2.65a13.6,13.6,0,0,1-4-.38A6.6,6.6,0,0,1,19,56.15Zm-7.79-3.74A1.57,1.57,0,0,0,9.68,54a1.55,1.55,0,0,0,3.09,0A1.6,1.6,0,0,0,11.23,52.41Zm14.37.08c.35-.41,1.18.34,1.28-.44.07-.61-.59-1-1.23-1s-1.37.36-1.34,1S25.13,52.18,25.6,52.49Z"/><path class="cls-3" d="M54.94,19.16c1.82-2,4-1.75,6.15-1.24a5.05,5.05,0,0,1,4,4.27,43,43,0,0,1,.22,6.32c0,.53,0,1.06.78,1,.55-.07.58.39.5.76-.41,2.11-.87,4.2-1.28,6.31-.09.48-.42.43-.75.43-2,0-3.92-.06-5.88,0-.65,0-.69-.35-.7-.84q-.16-4.61-.35-9.2a4.9,4.9,0,0,0-.07-.77,1.2,1.2,0,0,0-1.33-1.07A1.13,1.13,0,0,0,55.1,26.3c0,2.07,0,4.15,0,6.22,0,1.22,0,2.45,0,3.67,0,.49-.09.74-.67.73-2,0-3.92-.05-5.87,0-.93,0-1.28-.14-1.24-1.18.13-3.22.13-6.44.21-9.66,0-.66-.11-1.14-.79-1.39-.32-.13-.69-.27-.57-.8a18,18,0,0,1,1.39-4.77,2.49,2.49,0,0,1,2.2-1.45,12.32,12.32,0,0,1,3.43.12A2.13,2.13,0,0,1,54.94,19.16Z"/><path class="cls-3" d="M36.67,29.33a4.59,4.59,0,0,0,3.55,1.18c1.26.06,2.52,0,3.78,0,.67,0,1,.19.77.93-.37,1.51-.69,3-1,4.55-.11.54-.29.83-.9.89a26.49,26.49,0,0,1-8-.14c-6.57-1.34-9.54-7.43-6.84-14,1.46-3.56,4.19-5.51,7.83-5.47,4.09,0,7.46,1.45,9.28,5.42a9.56,9.56,0,0,1,.52,5.77c-.12.71-.56.83-1.19.83C42,29.31,39.45,29.12,36.67,29.33Zm-.29-4.59c.44,0,.88,0,1.32,0,.81.06.87-.26.54-.89a2,2,0,0,0-3.31-.38c-.26.3-.58.68-.42,1.07s.65.14,1,.18A6.44,6.44,0,0,0,36.38,24.74Z"/><path class="cls-3" d="M97.24,29.32a2.52,2.52,0,0,0,2,1.05,30,30,0,0,0,5.1.13c.86,0,1.11.26.89,1.12-.38,1.5-.68,3-1,4.55-.08.43-.23.64-.69.69a23.2,23.2,0,0,1-9.13-.37c-5.72-1.66-8.18-7.06-6-13.15,1.21-3.45,3.46-5.71,7.2-6s7.21.78,9.47,4.13a9.29,9.29,0,0,1,1.15,7.15c-.12.64-.56.69-1.08.68l-6.21-.05C98.39,29.24,97.89,29.29,97.24,29.32Zm-.36-4.58c.44,0,.88,0,1.32,0,.9.06.78-.39.49-.93a2,2,0,0,0-3.32-.3c-.26.32-.55.7-.37,1.09s.59.11.89.13S96.55,24.74,96.88,24.74Z"/><path class="cls-3" d="M138.69,27.43a9.5,9.5,0,1,1-9.52-9.5A9.4,9.4,0,0,1,138.69,27.43ZM129.25,30a2.58,2.58,0,0,0,2.5-2.57,2.65,2.65,0,0,0-2.54-2.56,2.68,2.68,0,0,0-2.57,2.65A2.61,2.61,0,0,0,129.25,30Z"/><path class="cls-3" d="M146.19,36.91a11,11,0,0,1-5-1.14c-.6-.35-.86-.71-.64-1.42.32-1.06.59-2.14.83-3.23.17-.8.53-.89,1.25-.59,1,.4,2,.68,2.93,1,.58.2,1.17.2,1.41-.45s-.32-1-.83-1.22c-.88-.39-1.79-.7-2.66-1.1-2.64-1.2-3.7-3.44-3.07-6.4a5.09,5.09,0,0,1,5.28-4,8.46,8.46,0,0,0,2.78-.42,4.28,4.28,0,0,1,3.59.66.72.72,0,0,1,.28.88c-.36,1.4-.69,2.8-1,4.2-.14.58-.45.68-1,.37a4.6,4.6,0,0,0-2.84-.76c-.48.05-1.07.12-1.16.67s.51.64.89.81c.68.29,1.38.53,2.07.81a5.15,5.15,0,0,1,3.65,5.13,6,6,0,0,1-3.68,5.69A9.3,9.3,0,0,1,146.19,36.91Z"/><path class="cls-3" d="M115.63,18.86c1.26-1,2.81-.74,4.3-1.15-.33,2.06-.55,4-1,5.89a1.85,1.85,0,0,1-2.08,1.66c-1.7-.05-1.73,0-1.81,1.67-.14,3-.29,6-.35,9,0,.85-.29,1.05-1.09,1-1.77,0-3.55,0-5.32.05-.77,0-.91-.22-.88-1,.13-3.29.18-6.58.28-9.87,0-.64,0-1.16-.71-1.45s-.55-.73-.41-1.24c.47-1.67,1-3.34,1.4-5,.12-.44.3-.59.76-.57,1.92.09,3.84.18,5.76.2C115.06,18.1,115.33,18.5,115.63,18.86Z"/><path class="cls-3" d="M5.5,67a22.71,22.71,0,0,1,11-2.17,57.6,57.6,0,0,1,6.81.86,28,28,0,0,0,10,.16,10.51,10.51,0,0,1-4.87,2.59,15.78,15.78,0,0,1-7.36,0A57.65,57.65,0,0,0,6.27,67,6.62,6.62,0,0,1,5.5,67Z"/><path class="cls-1" d="M141.64,66.59c-1.8,0-3.42,0-5,0-.4,0-.74,0-.56-.58.9-3.11,1.78-6.23,2.74-9.6C139.76,59.93,140.69,63.2,141.64,66.59Z"/><path class="cls-1" d="M199.82,66.59c1-3.38,1.88-6.64,2.88-10.19,1,3.37,1.81,6.45,2.7,9.51.16.56,0,.7-.52.69C203.25,66.57,201.63,66.59,199.82,66.59Z"/><path class="cls-1" d="M169.64,59.17c0-1,0-2,0-3,0-.29,0-.57.4-.65a3.81,3.81,0,0,1,4.2,3,3.64,3.64,0,0,1-4.13,4.24c-.56,0-.46-.35-.47-.66C169.63,61.09,169.64,60.13,169.64,59.17Z"/><path class="cls-1" d="M74.4,26.85a2.2,2.2,0,0,1,2.21-2.16,2.21,2.21,0,1,1-.1,4.42A2.2,2.2,0,0,1,74.4,26.85Z"/><path class="cls-1" d="M11.23,52.41A1.6,1.6,0,0,1,12.77,54a1.55,1.55,0,0,1-3.09,0A1.57,1.57,0,0,1,11.23,52.41Z"/><path class="cls-1" d="M25.6,52.49c-.47-.31-1.26.26-1.29-.44s.65-1,1.34-1,1.3.4,1.23,1C26.78,52.83,26,52.08,25.6,52.49Z"/><path class="cls-1" d="M36.38,24.74a6.44,6.44,0,0,1-.88,0c-.34,0-.82.22-1-.18s.16-.77.42-1.07a2,2,0,0,1,3.31.38c.33.63.27.95-.54.89C37.26,24.71,36.82,24.74,36.38,24.74Z"/><path class="cls-1" d="M96.88,24.74c-.33,0-.66,0-1,0s-.75.18-.89-.13.11-.77.37-1.09a2,2,0,0,1,3.32.3c.29.54.41,1-.49.93C97.76,24.72,97.32,24.74,96.88,24.74Z"/><path class="cls-1" d="M129.25,30a2.61,2.61,0,0,1-2.61-2.48,2.68,2.68,0,0,1,2.57-2.65,2.65,2.65,0,0,1,2.54,2.56A2.58,2.58,0,0,1,129.25,30Z"/></g></g></svg>